<?xml version="1.0" encoding="UTF-8"?>
<svg id="Layer_1" data-name="Layer 1" xmlns="http://www.w3.org/2000/svg" version="1.1" viewBox="0 0 599.7 600.5">
  <defs>
    <style>
      .cls-1 {
        fill: #000;
        stroke-width: 0px;
      }
    </style>
  </defs>
  <path class="cls-1" d="M76.4,390.6c8-37.7,23.6-78.1,46.2-120.1,37.6-69.9,82.1-120.7,84-122.8l38.5-43.8,125,246.9c12-17.3,25.5-38.4,37.9-61.6,28.4-53.1,57.4-129,34-188.7-20.5-52.1-63.4-89.9-119.1-99.4,0,0,0,0,0,0-7.6-.6-15.3-.9-23-.9C134.2.2,0,134.4,0,300s30.5,150.8,80.4,204.3c-9.6-34.5-12.6-73.7-4.1-113.8Z"/>
  <path class="cls-1" d="M599.7,300c0-78.8-30.4-150.5-80.1-204,9.1,34.1,11.9,72.5,3.5,111.8-8,37.7-23.6,78.1-46.2,120.1-37.6,69.9-82.1,120.7-84,122.8l-38.5,43.8-125-246.9c-12,17.3-25.5,38.4-37.9,61.6-28.4,53.1-57.4,129-34,188.7,20.5,52.1,63.4,89.9,119.1,99.4,6.9,1.2,13.9,2,20.8,2.5.8,0,1.6,0,2.5,0,165.6,0,299.8-134.2,299.8-299.8Z"/>
</svg>