<?xml version="1.0" encoding="UTF-8"?>
<svg id="Layer_1" xmlns="http://www.w3.org/2000/svg" version="1.1" viewBox="0 0 1289.7 496.1">
  <!-- Generator: Adobe Illustrator 29.5.1, SVG Export Plug-In . SVG Version: 2.1.0 Build 141)  -->
  <g>
    <path d="M660.4,150.6l-31.3-64.4h-142.5v.4c16.3,19,29.8,40.6,39.8,64h133.9Z"/>
    <path d="M723.4,280.4l-31.4-64.6h-147.6c1.3,10.3,1.9,20.8,1.9,31.4s-.7,22.3-2.1,33.2h179.2Z"/>
    <path d="M525.5,347.4c-9.9,22.5-23,43.2-38.8,61.6v1.9c0,0,37.4.1,37.4.2h262.7l-30.9-63.7h-230.4Z"/>
  </g>
  <g>
    <path d="M903.6,142.5c-14.6-31.6-42.8-52.5-79.4-56.2-21.5-2.1-43.3-.8-64.9-.9-27.4,0-54.8,0-85.1,0,12.2,24.3,22.8,45.4,33.2,66.2,36.2,0,70.6-.3,105,.1,20.6.3,35.1,14.4,34.9,32.5-.2,18.5-14.3,31.3-35.5,31.5-23.1.3-46.2,0-72.3,0,33.5,66.9,65.9,131.7,97.8,195.4h75.3c-22.5-45.2-44.4-89.2-66.3-133.1,4.3-2.3,7.2-3.8,10.1-5.3,10.4-5.2,19.6-11.9,27.5-19.7l-27-53.8,46.7-56.8Z"/>
    <path d="M1127.1,86.3c-12.6,25.2-25.2,50.3-37.7,75.3,31,62,62,123.8,93,185.7h75.5c-43.4-86.6-86.5-172.7-130.7-261.1Z"/>
    <polygon points="1127.1 86.3 1127.1 86.3 1127.1 86.3 1127.1 86.3"/>
    <polygon points="1047.8 347.4 1015.6 411.1 1214.3 411.1 1182.4 347.4 1047.8 347.4"/>
    <path d="M1257.8,347.4h-75.5l31.9,63.7h75.1s.1,0,.4,0c-10.7-21.3-21.3-42.5-31.9-63.7Z"/>
    <path d="M1127.1,86.3h-75.5c-29.3,58.5-58.4,116.8-87.7,175.2l38,74.8c29.3-58.6,58.3-116.5,87.4-174.7,0,0,0,0,0,0,12.2-24.4,24.2-48.3,37.7-75.3Z"/>
    <polygon points="1127.1 86.3 1127.1 86.3 1127.1 86.3 1127.1 86.3"/>
    <path d="M1127.1,86.3h0c-13.5,27-25.5,50.9-37.7,75.3,0,0,0,0,0,0,12.5-25.1,25.1-50.2,37.7-75.3t0,0Z"/>
    <path d="M1002,336.3h0c-12.6,25.2-25.3,50.5-38.1,76l38.1-76Z"/>
    <path d="M964,261.5l-60.4-119h0c4.2,9.1,7.2,19,9,29.7,4.9,28.9-6.5,59.1-28.7,80.9l80,159.2c-13.5-27-25.5-50.9-37.7-75.3,12.6-25.2,25.2-50.4,37.8-75.6Z"/>
    <path d="M912.6,172.2c-1.8-10.7-4.8-20.6-9-29.7l-46.7,56.8,27,53.8c22.2-21.8,33.5-52,28.7-80.9Z"/>
    <path d="M926.2,337c12.2,24.4,24.2,48.3,37.7,75.3,12.8-25.5,25.4-50.8,38.1-76l-38-74.8c-12.6,25.2-25.2,50.3-37.8,75.6Z"/>
  </g>
  <g>
    <path d="M63.1,322.7c6.6-31.1,19.5-64.5,38.2-99.2,31.1-57.7,67.8-99.7,69.4-101.5l31.8-36.2,103.3,204c9.9-14.3,21.1-31.7,31.3-50.9,23.5-43.9,47.4-106.6,28.1-155.9C348.3,39.9,312.8,8.7,266.8.9c0,0,0,0,0,0-6.3-.5-12.6-.7-19-.7C110.9.1,0,111,0,247.9s25.2,124.6,66.4,168.8c-7.9-28.5-10.4-60.9-3.4-94Z"/>
    <path d="M495.5,247.9c0-65.1-25.1-124.3-66.2-168.6,7.5,28.1,9.9,59.9,2.9,92.4-6.6,31.1-19.5,64.5-38.2,99.2-31.1,57.7-67.8,99.7-69.4,101.5l-31.8,36.2-103.3-204c-9.9,14.3-21.1,31.7-31.3,50.9-23.5,43.9-47.4,106.6-28.1,155.9,16.9,43.1,52.4,74.3,98.4,82.1,5.7,1,11.5,1.6,17.2,2.1.7,0,1.4,0,2,0,136.8,0,247.7-110.9,247.7-247.7Z"/>
  </g>
</svg>